<?xml version="1.0" encoding="UTF-8" standalone="no"?>
<!-- Created with Inkscape (http://www.inkscape.org/) -->

<svg
   xmlns:dc="http://purl.org/dc/elements/1.1/"
   xmlns:cc="http://creativecommons.org/ns#"
   xmlns:rdf="http://www.w3.org/1999/02/22-rdf-syntax-ns#"
   xmlns:svg="http://www.w3.org/2000/svg"
   xmlns="http://www.w3.org/2000/svg"
   xmlns:sodipodi="http://sodipodi.sourceforge.net/DTD/sodipodi-0.dtd"
   xmlns:inkscape="http://www.inkscape.org/namespaces/inkscape"
   width="150.13"
   height="150.09875"
   id="svg3116"
   version="1.1"
   inkscape:version="0.48.4 r9939"
   sodipodi:docname="Zeichnung-1.svg">
  <defs
     id="defs3118" />
  <sodipodi:namedview
     id="base"
     pagecolor="#ffffff"
     bordercolor="#666666"
     borderopacity="1.0"
     inkscape:pageopacity="0.0"
     inkscape:pageshadow="2"
     inkscape:zoom="1.0748023"
     inkscape:cx="4.8852438"
     inkscape:cy="-21.698309"
     inkscape:document-units="px"
     showgrid="false"
     inkscape:window-width="1354"
     inkscape:window-height="709"
     inkscape:window-x="0"
     inkscape:window-y="0"
     inkscape:window-maximized="1"
     inkscape:current-layer="svg3116"
     fit-margin-top="0"
     fit-margin-left="0"
     fit-margin-right="0"
     fit-margin-bottom="0" />
  <metadata
     id="metadata3121">
    <rdf:RDF>
      <cc:Work
         rdf:about="">
        <dc:format>image/svg+xml</dc:format>
        <dc:type
           rdf:resource="http://purl.org/dc/dcmitype/StillImage" />
        <dc:title></dc:title>
      </cc:Work>
    </rdf:RDF>
  </metadata>
  <g
     id="g3268"
     transform="translate(0.06500385,-902.31)">
    <rect
       y="902.36218"
       x="0"
       height="150"
       width="150"
       id="rect3264"
       style="fill:#999999;fill-opacity:1;fill-rule:evenodd;stroke:#000000;stroke-width:0;stroke-linejoin:round;stroke-miterlimit:4;stroke-opacity:1;stroke-dasharray:none;stroke-dashoffset:0" />
    <g
       transform="matrix(1.1877969,0,0,1.0126425,-295.26186,390.19488)"
       id="g3238">
      <path
         inkscape:connector-curvature="0"
         id="path3246"
         d="M 249.18523,579.71713 C 249.18523,555.21713 249.18523,530.71713 249.18523,506.21713 290.8519,506.21713 332.51856,506.21713 374.18523,506.21713 374.18523,555.21713 374.18523,604.21713 374.18523,653.21713 332.51856,653.21713 290.8519,653.21713 249.18523,653.21713 249.18523,628.71713 249.18523,604.21713 249.18523,579.71713 z"
         style="fill:#8c9d8f" />
      <path
         inkscape:connector-curvature="0"
         id="path3244"
         d="M 249.18523,631.30046 C 248.60231,620.19012 250.85673,609.06727 249.19313,598.01957 248.80483,590.70705 249.37577,583.39196 249.35363,576.07753 252.33836,571.60753 261.35747,576.74093 262.55326,571.21952 254.61031,572.2533 245.97585,566.33205 249.31768,557.76314 248.89478,540.78683 249.40228,523.80481 249.12511,506.82707 256.67795,505.44135 264.42363,506.52367 272.07179,506.21713 306.10961,506.21713 340.14742,506.21713 374.18523,506.21713 374.02541,520.33352 374.74347,534.49773 373.25036,548.56734 376.50815,556.99673 369.42237,565.69895 373.21026,574.17238 374.60976,581.62457 373.76211,589.25769 372.81132,596.70627 366.62107,597.08028 352.64537,596.38519 351.56326,598.85997 358.66798,600.88058 369.41782,596.2543 374.2402,601.32417 374.11939,618.59873 374.21638,635.92137 374.18523,653.21713 369.93631,654.059 362.36209,653.33288 365.09823,648.30367 356.81912,643.64365 347.2465,648.05627 338.39699,646.32869 331.71722,644.34084 323.78761,645.66298 321.75796,652.18858 313.91674,654.13388 305.76542,652.36569 297.79704,653.18796 281.59329,653.31524 265.38911,653.14092 249.18523,653.21713 249.18523,645.91157 249.18523,638.60602 249.18523,631.30046 z M 312.53107,616.91745 C 311.4114,607.38133 320.47772,600.12545 329.41168,600.32718 333.60142,599.33919 342.33484,599.61316 343.74041,598.33713 335.49575,596.28996 326.59539,596.54172 318.64898,599.66601 311.5704,600.46934 299.51817,604.58967 296.62302,607.31599 304.90587,609.07667 309.85307,616.24048 310.0555,624.39972 312.53432,631.75371 312.94073,619.45281 312.53107,616.91745 z M 279.68523,609.21713 C 282.9425,606.71784 290.14321,610.23099 291.517,606.61033 285.84728,606.34273 277.20864,602.68282 274.08659,609.54075 275.78101,610.59738 278.12597,610.47059 279.68523,609.21713 z M 307.7982,585.23601 C 309.30792,577.67271 318.30638,578.54766 324.18416,578.78748 326.51273,578.8522 336.51345,578.6268 334.15941,576.65033 326.59947,580.71644 321.45868,566.93449 315.64959,573.58322 310.17205,575.36183 297.86987,575.12285 302.10799,584.10157 303.1773,587.07372 308.08074,591.98932 307.7982,585.23601 z M 363.18523,575.99351 C 360.86244,574.0672 351.8688,577.56277 359.00164,577.41231 360.38728,577.57384 362.8416,577.87823 363.18523,575.99351 z M 289.19747,575.60183 C 295.62438,571.31335 284.41291,564.12779 288.87498,558.19344 288.9411,547.51074 288.89106,536.76224 290.62586,526.18863 293.51309,524.78299 295.83332,517.52846 290.71171,521.76774 283.97802,526.12442 278.44679,535.46444 283.19695,543.13255 286.76755,550.8386 287.25721,561.56302 280.70064,567.76279 277.56472,569.31827 269.79004,572.40643 277.72533,573.50125 280.97197,575.79084 285.43868,578.65538 289.19747,575.60183 z M 350.68523,576.21713 C 348.00706,572.68604 346.5298,580.70112 350.68523,576.21713 z M 315.805,552.40833 C 311.62817,549.04695 314.57679,555.59446 316.33826,554.03538 L 316.1952,553.39055 315.805,552.40833 z M 365.18523,540.34213 C 366.83585,536.26905 360.91034,532.77737 363.18201,538.82494 363.09957,539.69334 364.29643,542.51849 365.18523,540.34213 z M 321.18523,534.15811 C 317.85419,529.11911 318.19137,541.63798 321.12342,534.66237 L 321.17079,534.27595 321.18523,534.15811 z M 330.10649,525.8657 C 336.80679,519.50149 346.94514,520.70969 354.60936,516.22947 358.46917,517.01285 367.17751,521.64747 364.48036,513.46114 357.57938,507.87482 347.62519,513.54736 339.45524,511.35878 334.03788,511.38345 321.43896,507.65393 324.92012,517.21358 325.48405,519.77433 325.43713,528.55534 330.10649,525.8657 z M 354.96448,651.6592 C 363.63222,649.52358 349.43755,656.96524 354.96448,651.6592 z"
         style="fill:#4f696b" />
      <path
         inkscape:connector-curvature="0"
         id="path3242"
         d="M 249.18523,631.75355 C 250.53083,624.60877 246.09531,614.18251 253.11337,609.6697 256.57821,606.29911 247.64424,605.14471 249.44356,600.29638 251.13048,593.30849 246.95498,582.43311 252.99274,578.14689 258.15136,578.48088 263.62843,576.53233 268.9963,577.73549 274.54283,578.45675 280.09623,579.2233 285.68326,578.88326 293.34093,579.69389 299.03436,585.43963 304.58066,590.20949 311.94601,591.72355 310.37501,574.76132 319.94005,580.79206 329.74324,581.37795 339.49493,579.45214 349.10318,578.03333 356.18336,579.8512 363.13145,580.32109 369.53797,577.22082 377.49788,579.77133 374.71803,592.17393 367.64306,594.35675 359.2256,597.99781 349.82982,595.50521 340.98339,595.99339 333.9927,595.77501 326.95533,595.94514 320.36368,598.36515 313.8542,599.58014 306.39956,598.77698 301.01073,603.34509 292.33957,606.10055 283.12189,602.9236 274.37352,605.1327 270.83008,603.83876 259.73457,609.20797 266.81188,611.04904 275.85226,611.51927 284.78155,610.31747 293.6982,610.00261 303.80869,608.2542 307.36547,617.72772 308.71474,625.76434 309.80187,628.45561 313.03848,637.39976 314.52627,634.96685 316.31128,627.47004 311.69915,618.07936 316.50358,611.68433 320.89746,608.18874 325.29135,604.69315 329.68523,601.19756 344.10199,601.50958 358.51989,601.77256 372.93523,602.14727 375.59112,615.78496 373.22967,629.75834 374.27741,643.50781 376.6502,648.99152 371.35124,658.00427 366.7737,651.32646 374.71515,645.52905 360.26052,644.9365 356.04174,645.35807 344.46661,644.7496 332.73636,644.1189 321.18523,645.63656 324.55613,651.14134 319.81543,655.74513 314.19547,653.16282 303.15079,652.10204 292.04288,651.74615 280.98651,652.85873 270.39236,653.32959 259.78562,653.10906 249.18523,653.17194 249.18523,646.03248 249.18523,638.89301 249.18523,631.75355 z M 264.62141,618.90493 C 265.32827,610.24984 256.9403,625.83891 264.08996,620.05093 L 264.62141,618.90493 z M 297.65051,575.25629 C 288.48412,572.07578 300.83127,563.13522 304.84607,569.4121 308.94308,567.81599 318.13604,560.45391 316.65598,570.02717 312.55813,576.02989 303.94005,574.80655 297.65051,575.25629 z M 329.41625,574.437 C 324.66107,573.18312 336.80895,568.34905 329.09022,567.40122 325.45684,564.66011 336.20873,561.24169 328.00643,561.75059 322.12471,560.17089 327.84174,574.77373 321.96117,567.4521 315.46108,564.47899 319.19489,552.45228 325.97935,555.44575 325.20792,552.10908 333.4156,550.90603 335.15516,547.77741 332.9412,545.73288 329.98363,537.30579 328.81909,538.92408 328.77704,542.44728 324.01547,547.48226 324.50958,540.88838 325.39302,530.57031 338.61213,534.15726 343.87333,531.24849 343.96722,527.41022 349.90577,518.43273 350.81803,525.36403 347.85429,531.87039 353.40135,529.30994 354.92439,525.3429 362.14588,517.94908 362.69585,533.1919 361.22286,537.63874 360.95961,543.79759 347.94948,540.74934 354.57366,546.68099 352.44001,551.95928 359.17577,549.92872 358.68371,545.57985 360.27559,541.10486 369.81878,544.21935 367.08386,536.89567 364.81125,530.24334 361.54271,521.85236 367.80141,516.31576 373.00858,508.90664 358.93186,510.86233 354.86496,510.19748 343.59136,509.69548 332.30403,509.74156 321.02333,509.54061 322.17247,515.36723 328.29441,526.74671 317.91304,527.09766 314.46903,528.38163 305.17755,529.33431 312.12149,524.25432 314.14587,521.83562 324.28796,523.19948 316.87255,520.77692 308.6205,519.16014 299.39767,516.37018 291.27818,519.02046 283.94307,522.59999 277.45926,531.39169 280.87795,539.72303 282.93349,546.38695 287.04163,553.70787 283.56244,560.64025 282.51226,567.73077 274.40133,569.02158 268.47379,568.59027 262.23845,568.06617 254.09188,572.13519 249.86106,565.54742 248.22305,559.30236 249.69585,552.46721 249.2375,545.95613 249.57463,539.27946 248.65751,532.49848 249.42071,525.89733 253.97329,520.31224 262.31327,525.58749 268.44692,523.75146 278.51093,521.33879 265.40257,516.18361 261.22996,519.77115 255.89143,522.62526 246.66297,522.21716 249.1971,513.73124 248.17925,508.42516 248.9525,504.86077 254.63559,506.23346 294.48547,506.24349 334.33535,506.25351 374.18523,506.26354 373.95742,518.93537 374.85658,531.67723 373.15005,544.28287 363.65904,545.47566 367.47881,555.86054 369.42607,561.57503 371.94448,568.92885 366.95378,576.53909 358.83788,574.03577 349.02911,574.0638 339.22616,574.79582 329.41625,574.437 z M 341.68682,571.45182 C 346.95276,570.95241 343.21253,559.81368 340.54797,566.80496 335.11459,567.31614 332.78817,573.64904 341.68682,571.45182 z M 353.7441,570.74893 C 354.0338,566.12914 346.35535,574.96402 352.79174,571.33832 353.1092,571.14185 353.42665,570.94539 353.7441,570.74893 z M 338.9144,563.61296 C 336.23261,561.68352 336.09906,566.02763 338.9144,563.61296 z M 337.68523,557.14749 C 333.22383,550.54204 334.78385,563.64847 337.68523,557.14749 z M 341.18523,552.21713 C 339.12782,548.15501 339.75801,555.18567 341.18523,552.21713 z M 337.58682,540.05416 C 340.79683,532.54282 327.78899,541.67148 336.01285,541.8234 336.6904,541.38013 337.07949,540.65742 337.58682,540.05416 z M 350.18523,540.25231 C 349.67535,533.51673 337.9884,541.91175 346.81472,541.16228 347.97359,541.18027 349.33899,541.20575 350.18523,540.25231 z M 354.18523,535.21713 C 352.30407,532.40682 353.19149,538.65953 354.18523,535.21713 z M 357.64252,531.28623 C 357.55453,525.64813 354.58229,533.91622 357.64252,531.28623 z M 305.53031,563.674 C 305.07524,556.43616 310.26246,568.51324 305.53031,563.674 z M 312.28951,561.29172 C 307.09364,555.52624 318.25359,559.13672 312.28951,561.29172 z M 300.39211,560.02401 C 298.04495,550.09833 308.9042,561.75041 300.39211,560.02401 z M 307.72793,555.28623 C 308.75882,550.12872 310.92312,558.9054 307.72793,555.28623 z M 291.18523,538.91713 C 291.36935,532.30385 294.09971,539.76344 291.96116,540.67273 L 291.61215,540.04706 291.18523,538.91713 z M 303.68523,541.21713 C 306.22959,537.56762 304.34377,544.4698 303.68523,541.21713 z M 334.80365,529.66514 C 332.52548,518.83123 349.58429,527.73253 336.96916,530.82225 336.08393,530.94872 335.16848,530.46749 334.80365,529.66514 z"
         style="fill:#2e4c54" />
      <path
         inkscape:connector-curvature="0"
         id="path3240"
         d="M 256.43523,652.53737 C 260.93046,650.1293 273.63773,651.81392 272.26081,646.19176 269.53493,646.08302 263.05939,644.76577 268.71994,642.44404 275.80815,635.8957 264.24248,624.6297 271.4065,619.59227 274.14738,617.45072 286.49458,612.03227 283.85998,617.87159 277.50215,616.66872 271.75131,619.98518 273.332,627.21249 274.68597,632.59083 275.80169,637.81377 276.61275,642.87142 279.97349,643.461 279.78064,635.63615 284.83817,635.79431 292.30404,635.56669 297.95676,628.78196 305.01508,629.56443 309.63181,630.79145 313.98348,644.50432 318.1384,637.8576 316.03,632.98948 320.18499,634.37921 321.92569,633.38922 319.01504,629.9642 312.11422,623.92428 320.2187,621.26549 325.18302,621.0688 325.88767,614.95469 321.04312,618.83937 315.92962,615.10128 324.34582,606.6424 329.29716,606.96103 332.19638,610.5181 335.06362,613.25985 340.07189,613.89844 344.68992,623.10849 344.00273,604.15687 350.4097,608.14011 351.59748,617.47986 358.48009,601.33452 362.76955,607.71441 363.13831,611.20692 363.40685,618.48668 368.32738,613.42918 368.90749,610.20933 374.20221,602.47312 373.63366,610.27034 372.8976,618.09524 372.65918,625.98417 374.65053,633.6189 374.81471,641.23409 365.77838,648.12407 358.77578,643.91479 350.04871,640.76769 353.52322,625.29016 363.06257,630.77532 367.14723,631.07144 374.0921,620.07157 366.76731,624.59001 361.53643,626.5205 358.39129,616.63294 356.02729,624.38078 354.32165,629.92126 350.26756,629.23593 348.21618,624.51429 343.21443,623.56751 344.94365,631.37652 348.95483,631.06753 347.38898,635.16899 338.51779,637.5964 344.41216,643.82791 337.33254,646.29896 329.35621,641.0718 322.01461,643.55157 317.14337,643.98769 323.95298,655.78228 315.89848,653.37939 309.2719,652.08519 302.21426,652.30076 295.40447,651.97227 290.54782,650.49313 282.35858,655.30507 279.6461,651.66169 282.30402,643.59686 274.87192,654.31558 270.88386,652.64103 266.8081,652.80551 257.49762,652.49634 256.43523,652.53737 z M 305.73908,642.30426 C 297.60653,641.51098 312.93261,631.80463 303.33389,632.89521 301.22475,636.00256 288.95524,640.47533 296.90464,643.33779 299.20408,643.47162 305.30067,644.38041 305.73908,642.30426 z M 332.95629,637.40395 C 329.56361,635.00708 330.52054,642.60584 332.95629,637.40395 z M 339.36605,633.61923 C 348.30611,625.60752 323.83966,623.99691 332.22578,633.17428 334.17961,634.72464 337.35469,635.5332 339.36605,633.61923 z M 327.96413,625.31934 C 323.47257,618.94515 321.94046,634.24201 327.35591,627.85965 L 327.84812,626.6331 327.96413,625.31934 z M 332.69078,620.211 C 335.01512,613.48825 322.46647,623.96106 330.56702,621.71611 L 331.69697,621.06353 332.69078,620.211 z M 339.18523,616.64381 C 334.84434,611.55063 335.70582,622.67012 339.18523,616.64381 z M 372.76818,647.35134 C 370.90846,642.87304 376.30297,648.53175 372.76818,647.35134 z M 253.18523,644.15811 C 255.68047,642.37234 253.99038,647.15746 253.18523,644.15811 z M 280.86145,630.81577 C 280.68678,624.65911 286.2935,622.26663 289.9895,620.08129 290.72471,614.51698 301.16129,608.5042 302.82766,615.48402 297.03133,621.24077 310.89805,621.24746 305.26125,626.32966 300.35501,629.99028 295.24535,625.17442 298.35139,620.13355 295.92143,615.68549 292.271,623.03923 294.54214,625.42551 291.6017,629.22427 285.09699,627.53642 282.26017,631.42241 L 281.51482,631.23 280.86145,630.81577 z M 249.54561,624.79016 C 251.11461,618.90857 251.4583,629.68447 249.63853,625.10071 L 249.54561,624.79016 z M 280.68523,612.21713 C 283.62091,608.43074 282.99521,615.72279 280.68523,612.21713 z M 337.9169,610.3757 C 331.0302,603.73938 350.75353,604.58042 343.19108,610.79502 341.7248,612.49635 339.29684,611.73818 337.9169,610.3757 z M 256.68523,606.11891 C 247.57705,607.99126 251.28043,594.80323 258.57904,596.48337 262.28659,597.62357 264.62796,593.76465 266.39374,597.95516 269.45521,599.54495 280.34444,597.59717 276.76083,602.90946 270.46624,605.54918 263.51196,607.01742 256.68523,606.11891 z M 284.18523,603.38258 C 292.60927,600.11942 301.19214,596.81835 308.4907,591.67439 312.92414,592.9408 320.50771,592.72726 316.65138,585.93699 315.97292,578.47611 323.24069,589.85789 326.23189,590.46004 332.50774,595.02614 343.93997,593.30984 344.97014,584.41023 346.7815,574.97424 355.86856,583.06494 361.58917,581.97402 365.99462,579.73934 373.74477,576.92604 373.60689,585.06504 372.68151,595.74826 359.83677,596.11424 351.6782,595.25932 343.11887,594.81872 334.50501,594.84699 325.96236,595.62671 318.77899,600.28436 308.62369,595.5183 302.16281,601.8774 296.36371,603.68312 290.19553,603.78533 284.18523,603.38258 z M 356.94311,584.44348 C 355.11134,579.52602 342.43338,583.64901 351.3541,585.7143 353.2756,585.8348 355.35076,585.6302 356.94311,584.44348 z M 262.8622,589.78681 C 255.16451,585.02109 275.46047,580.8737 267.24399,588.08697 266.41937,591.28759 265.6521,593.80152 262.8622,589.78681 z M 300.18523,589.15811 C 302.68047,587.37234 300.99038,592.15746 300.18523,589.15811 z M 279.40318,587.97211 C 272.77944,581.78391 292.02522,585.26243 283.07061,588.75869 281.81567,588.68308 280.59755,588.34286 279.40318,587.97211 z M 336.87908,585.57765 C 335.76275,578.60955 341.89631,587.63305 336.87908,585.57765 z M 326.20529,583.69296 C 329.57358,579.66111 325.48627,588.47483 326.20529,583.69296 z M 295.83509,572.75186 C 298.18815,564.61284 308.71311,574.5896 312.97856,568.4419 318.99569,571.96544 306.47519,574.03466 303.33955,574.18017 300.75045,574.47961 298.18178,573.80473 295.83509,572.75186 z M 359.49202,572.51687 C 365.4519,567.83634 361.49858,559.9922 361.1474,553.85366 360.00931,550.11444 364.51716,543.33049 364.90898,550.63073 365.68028,557.6191 371.1381,566.05148 365.48668,572.22762 363.77412,573.39844 361.28465,573.68358 359.49202,572.51687 z M 249.18523,566.21713 C 249.96382,561.24146 250.30284,571.37304 249.18523,566.21713 z M 251.73742,567.43599 C 248.11034,555.81129 250.08024,543.4669 248.92049,531.53543 249.89769,523.87165 259.28163,524.90385 264.95951,525.21212 271.42713,524.40642 279.8013,528.61262 279.50501,535.9585 278.74437,544.19408 287.56031,553.00416 281.89974,561.44778 277.95332,570.64118 266.15377,566.78715 258.33455,567.80296 256.13163,567.77948 253.92808,567.67476 251.73742,567.43599 z M 268.71735,550.76816 C 277.30341,545.94139 258.64171,545.0199 264.55678,551.84283 266.00229,552.055 267.60762,551.78337 268.71735,550.76816 z M 276.16992,542.40811 C 278.17844,533.27149 265.26649,542.47558 272.97857,545.97236 275.31413,547.21585 277.67809,544.65892 276.16992,542.40811 z M 368.70396,542.5525 C 369.79913,538.8116 367.34354,529.7435 373.16909,530.20805 374.47479,534.96748 376.25251,542.59529 370.06269,544.91203 369.17588,544.43874 368.94567,543.4221 368.70396,542.5525 z M 358.4144,533.02963 C 360.26524,528.18275 360.70635,536.18241 358.4144,533.02963 z M 277.21411,522.52671 C 271.60554,520.04507 286.04004,511.93606 277.87708,514.60427 269.72537,518.3571 259.6505,519.3707 251.04272,519.29982 253.22481,513.41681 264.64518,518.23912 270.03653,514.8311 278.17172,510.90858 266.1933,511.48852 266.45757,508.65244 270.72034,502.64856 277.95345,512.19143 281.71081,506.23957 289.51668,505.65428 297.12174,508.81971 304.87471,508.56551 310.56911,506.6593 324.49576,501.83994 319.7575,512.89655 322.92539,516.47329 321.95585,522.19984 316.29405,519.00956 306.54553,516.29611 296.20625,517.16065 286.18523,516.30875 288.59629,521.69374 281.15182,529.61122 277.21411,522.52671 z M 372.76818,512.35134 C 370.90846,507.87304 376.30297,513.53175 372.76818,512.35134 z M 253.18523,509.15811 C 255.68047,507.37234 253.99038,512.15746 253.18523,509.15811 z M 363.18523,509.53715 C 360.01433,511.24714 353.1121,505.63478 360.11435,506.43084 363.83282,503.50766 372.59858,511.37909 363.97154,509.61969 363.70943,509.59218 363.44733,509.56466 363.18523,509.53715 z M 330.78827,508.38386 C 326.84862,509.09257 324.55591,506.13197 329.7661,506.79443 334.19235,507.21051 344.41827,505.67886 345.18567,508.59013 340.47628,509.89199 335.50985,509.2725 330.78827,508.38386 z"
         style="fill:#102930" />
    </g>
  </g>
</svg>
