<?xml version="1.0" encoding="UTF-8" standalone="no"?>
<!-- Created with Inkscape (http://www.inkscape.org/) -->

<svg
   xmlns:dc="http://purl.org/dc/elements/1.1/"
   xmlns:cc="http://creativecommons.org/ns#"
   xmlns:rdf="http://www.w3.org/1999/02/22-rdf-syntax-ns#"
   xmlns:svg="http://www.w3.org/2000/svg"
   xmlns="http://www.w3.org/2000/svg"
   xmlns:sodipodi="http://sodipodi.sourceforge.net/DTD/sodipodi-0.dtd"
   xmlns:inkscape="http://www.inkscape.org/namespaces/inkscape"
   width="45.711842"
   height="159.62885"
   id="svg3068"
   version="1.1"
   inkscape:version="0.48.4 r9939"
   sodipodi:docname="playershape.svg">
  <defs
     id="defs3070" />
  <sodipodi:namedview
     id="base"
     pagecolor="#ffffff"
     bordercolor="#666666"
     borderopacity="1.0"
     inkscape:pageopacity="0.0"
     inkscape:pageshadow="2"
     inkscape:zoom="1.64"
     inkscape:cx="18.261973"
     inkscape:cy="84.088857"
     inkscape:document-units="px"
     inkscape:current-layer="layer1"
     showgrid="false"
     inkscape:window-width="1354"
     inkscape:window-height="709"
     inkscape:window-x="0"
     inkscape:window-y="0"
     inkscape:window-maximized="1"
     fit-margin-top="0"
     fit-margin-left="0"
     fit-margin-right="0"
     fit-margin-bottom="0" />
  <metadata
     id="metadata3073">
    <rdf:RDF>
      <cc:Work
         rdf:about="">
        <dc:format>image/svg+xml</dc:format>
        <dc:type
           rdf:resource="http://purl.org/dc/dcmitype/StillImage" />
        <dc:title></dc:title>
      </cc:Work>
    </rdf:RDF>
  </metadata>
  <g
     inkscape:label="Ebene 1"
     inkscape:groupmode="layer"
     id="layer1"
     transform="translate(0.02775464,-935.91533)">
    <g
       id="g3307"
       transform="matrix(1.5003261,0,0,1.36498,0.01388637,-341.59042)">
      <g
         transform="matrix(0.97416886,-0.2258208,0.2258208,0.97416886,-223.27042,28.486734)"
         inkscape:transform-center-y="27.449328"
         inkscape:transform-center-x="-4.356796"
         id="g4479">
        <g
           style="fill:#ffcc99;stroke:#ee871b;stroke-width:7.06616306;stroke-miterlimit:4;stroke-opacity:0.45098039;stroke-dasharray:none"
           id="g4481"
           transform="matrix(0.04212998,0.0043562,-0.00437706,0.04233167,1.9805703,931.5966)">
          <path
             style="stroke:#ee871b;stroke-width:7.06616306;stroke-miterlimit:4;stroke-opacity:0.45098039;stroke-dasharray:none"
             d="M 445,1995 C 412.74162,1994.2122 379.56606,1928.718 373.02763,1891.8348 359.37393,1818.9707 340.30932,1800.4287 327.44559,1727.3816 319.72692,1678.8942 296.3714,1611.3122 302.76124,1562.5928 303.14297,1525.275 294.71419,1526.1268 300.01049,1501.6588 286.55063,1476.0243 278.73957,1452.2011 277.93169,1421.8903 275.41429,1394.2377 259.11481,1364.7955 273.38987,1338.3497 285.59324,1305.8998 297.79662,1273.4499 310,1241 343.16074,1223.3923 370.33604,1174.4784 407.55194,1178.1435 439.54771,1186.4027 473.33345,1193.2566 491.17933,1224.2329 521.51318,1252.1987 538.46288,1289.7941 540.65047,1330.727 547.48866,1382.7209 540.66437,1435.3796 541.47243,1487.6739 539.68711,1605.5485 552.10414,1725.5888 538.77731,1842.8052 537.05453,1867.4397 536.34595,1894.3992 524.13902,1916.8022 519.23543,2008.7112 500.37318,1991.7261 467.4517,1985.458 459.9678,1988.6387 452.4839,1991.8193 445,1995 z"
             id="path4483"
             inkscape:connector-curvature="0"
             sodipodi:nodetypes="cccccccccccccccc" />
        </g>
        <g
           style="fill:#ffcc99;stroke:#ee871b;stroke-width:7.06616306;stroke-miterlimit:4;stroke-opacity:0.45098039;stroke-dasharray:none"
           id="g4485"
           transform="matrix(0.04212998,0.0043562,-0.00437706,0.04233167,1.9805703,931.5966)">
          <path
             style="stroke:#ee871b;stroke-width:7.06616306;stroke-miterlimit:4;stroke-opacity:0.45098039;stroke-dasharray:none"
             d="M 510.06011,1981.5584 C 511.15389,1994.8839 511.04982,2011.9931 509.77626,2026.9021 501.97737,2067.7142 491.23881,2109.277 484.74165,2153.1489 415.14439,2155.2725 367.95455,2137.5723 324.23087,2100.1051 324.46278,2082.0206 331.87954,2061.6332 337.0828,2046.5966 346.59858,2020.8875 353.92364,2005.3907 368.66133,1981.9711 380.54807,1964.0798 383.11479,1958.4045 394.22766,1946.3658"
             id="path4487"
             inkscape:connector-curvature="0"
             sodipodi:nodetypes="ccccccc" />
        </g>
        <g
           style="fill:#000000;stroke:#ee871b;stroke-width:0;stroke-miterlimit:4;stroke-opacity:0.45098039;stroke-dasharray:none"
           id="g4489"
           transform="matrix(0.04212998,0.0043562,-0.00437706,0.04233167,14.918363,932.81168)">
          <path
             d="M 159.74688,2728.7156 C 187.28079,2756.2177 222.8906,2775.2636 247.1347,2805.9843 234.10433,2815.3327 198.09079,2809.0709 176.3397,2807.9006 151.40316,2805.2233 127.73086,2796.5792 103.37702,2791.8378 71.882241,2778.2599 63.065951,2741.5217 48.283241,2713.8278 43.101891,2695.7806 12.799011,2650.9772 3.7930613,2689.0166 -1.6443687,2726.6414 6.9773813,2765.167 -1.0689087,2802.6128 -36.428089,2807.6121 -27.709889,2760.5519 -27.093159,2738.4261 -27.610659,2685.7347 -29.620909,2632.229 -19.803369,2580.0495 -1.8237987,2553.0921 25.078731,2523.4177 14.819791,2488.4434 1.3612713,2376.4347 -4.4001087,2263.477 -2.0372687,2150.7143 -3.0266987,2126.4992 -8.6205487,2094.043 14.768611,2078.4907 43.491931,2074.3574 72.971851,2086.9138 102.65968,2084.1402 135.01495,2085.0628 167.38554,2084.352 199.74688,2084.7156 200.34978,2136.2712 187.3384,2171.0393 185.4281,2177.6327 164.36605,2314.2792 136.26949,2442.4378 118.78187,2579.6511 127.01086,2628.6506 127.57037,2682.1852 154.16565,2725.3904 156.02606,2726.4988 157.88647,2727.6072 159.74688,2728.7156 z"
             id="path4491"
             inkscape:connector-curvature="0"
             sodipodi:nodetypes="cccccccccccccccccc"
             style="stroke:#ee871b;stroke-width:0;stroke-miterlimit:4;stroke-opacity:0.45098039;stroke-dasharray:none" />
        </g>
      </g>
      <g
         transform="matrix(0.99785679,-0.06543568,0.06543568,0.99785679,-64.782143,2.9657209)"
         inkscape:transform-center-y="27.428708"
         inkscape:transform-center-x="0.56520024"
         id="g4471">
        <g
           transform="matrix(0.04212998,0.0043562,-0.00437706,0.04233167,1.9805703,931.5966)"
           id="g3467"
           style="fill:#ffcc99;stroke:#ee871b;stroke-width:7.06616306;stroke-miterlimit:4;stroke-opacity:0.45098039;stroke-dasharray:none">
          <path
             sodipodi:nodetypes="cccccccccccccccc"
             inkscape:connector-curvature="0"
             id="path3469"
             d="M 445,1995 C 412.74162,1994.2122 379.56606,1928.718 373.02763,1891.8348 359.37393,1818.9707 340.30932,1800.4287 327.44559,1727.3816 319.72692,1678.8942 296.3714,1611.3122 302.76124,1562.5928 303.14297,1525.275 294.71419,1526.1268 300.01049,1501.6588 286.55063,1476.0243 278.73957,1452.2011 277.93169,1421.8903 275.41429,1394.2377 259.11481,1364.7955 273.38987,1338.3497 285.59324,1305.8998 297.79662,1273.4499 310,1241 343.16074,1223.3923 370.33604,1174.4784 407.55194,1178.1435 439.54771,1186.4027 473.33345,1193.2566 491.17933,1224.2329 521.51318,1252.1987 538.46288,1289.7941 540.65047,1330.727 547.48866,1382.7209 540.66437,1435.3796 541.47243,1487.6739 539.68711,1605.5485 552.10414,1725.5888 538.77731,1842.8052 537.05453,1867.4397 536.34595,1894.3992 524.13902,1916.8022 519.23543,2008.7112 500.37318,1991.7261 467.4517,1985.458 459.9678,1988.6387 452.4839,1991.8193 445,1995 z"
             style="stroke:#ee871b;stroke-width:7.06616306;stroke-miterlimit:4;stroke-opacity:0.45098039;stroke-dasharray:none" />
        </g>
        <g
           transform="matrix(0.04212998,0.0043562,-0.00437706,0.04233167,1.9805703,931.5966)"
           id="g3471"
           style="fill:#ffcc99;stroke:#ee871b;stroke-width:7.06616306;stroke-miterlimit:4;stroke-opacity:0.45098039;stroke-dasharray:none">
          <path
             sodipodi:nodetypes="ccccccc"
             inkscape:connector-curvature="0"
             id="path3473"
             d="M 510.06011,1981.5584 C 511.15389,1994.8839 511.04982,2011.9931 509.77626,2026.9021 501.97737,2067.7142 491.23881,2109.277 484.74165,2153.1489 415.14439,2155.2725 367.95455,2137.5723 324.23087,2100.1051 324.46278,2082.0206 331.87954,2061.6332 337.0828,2046.5966 346.59858,2020.8875 353.92364,2005.3907 368.66133,1981.9711 380.54807,1964.0798 383.11479,1958.4045 394.22766,1946.3658"
             style="stroke:#ee871b;stroke-width:7.06616306;stroke-miterlimit:4;stroke-opacity:0.45098039;stroke-dasharray:none" />
        </g>
        <g
           transform="matrix(0.04212998,0.0043562,-0.00437706,0.04233167,14.918363,932.81168)"
           id="g3475"
           style="fill:#000000;stroke:#ee871b;stroke-width:0;stroke-miterlimit:4;stroke-opacity:0.45098039;stroke-dasharray:none">
          <path
             style="stroke:#ee871b;stroke-width:0;stroke-miterlimit:4;stroke-opacity:0.45098039;stroke-dasharray:none"
             sodipodi:nodetypes="cccccccccccccccccc"
             inkscape:connector-curvature="0"
             id="path3477"
             d="M 159.74688,2728.7156 C 187.28079,2756.2177 222.8906,2775.2636 247.1347,2805.9843 234.10433,2815.3327 198.09079,2809.0709 176.3397,2807.9006 151.40316,2805.2233 127.73086,2796.5792 103.37702,2791.8378 71.882241,2778.2599 63.065951,2741.5217 48.283241,2713.8278 43.101891,2695.7806 12.799011,2650.9772 3.7930613,2689.0166 -1.6443687,2726.6414 6.9773813,2765.167 -1.0689087,2802.6128 -36.428089,2807.6121 -27.709889,2760.5519 -27.093159,2738.4261 -27.610659,2685.7347 -29.620909,2632.229 -19.803369,2580.0495 -1.8237987,2553.0921 25.078731,2523.4177 14.819791,2488.4434 1.3612713,2376.4347 -4.4001087,2263.477 -2.0372687,2150.7143 -3.0266987,2126.4992 -8.6205487,2094.043 14.768611,2078.4907 43.491931,2074.3574 72.971851,2086.9138 102.65968,2084.1402 135.01495,2085.0628 167.38554,2084.352 199.74688,2084.7156 200.34978,2136.2712 187.3384,2171.0393 185.4281,2177.6327 164.36605,2314.2792 136.26949,2442.4378 118.78187,2579.6511 127.01086,2628.6506 127.57037,2682.1852 154.16565,2725.3904 156.02606,2726.4988 157.88647,2727.6072 159.74688,2728.7156 z" />
        </g>
      </g>
      <path
         sodipodi:nodetypes="sssss"
         inkscape:connector-curvature="0"
         id="path3139"
         d="M 20.762282,947.73002 C 20.762282,948.04735 20.543347,948.30459 20.273277,948.30459 20.003207,948.30459 19.784272,948.04735 19.784272,947.73002 19.784272,947.4127 20.171727,947.3962 20.441797,947.3962 20.711867,947.3962 20.762282,947.4126 20.762282,947.73002 z"
         style="fill:#00f600;fill-opacity:1;fill-rule:evenodd;stroke:none" />
      <g
         transform="matrix(0.04235459,0,0,0.04255736,-3.9183138,933.08657)"
         id="g4"
         style="fill:#ffcc99;stroke:none">
        <polygon
           id="polygon6"
           points="579,1078 567,1217 532,1312 452,1306 373,1276 317,1261 361,1159 361,1159 361,1093 355,1044 349,995 342,945 336,896 326,861 316,828 306,792 296,760 289,721 281,683 273,646 266,607 280,583 293,557 307,531 322,506 348,519 373,534 399,547 426,562 437,575 450,589 462,603 474,618 512,652 552,686 592,720 631,756 627,770 625,786 621,801 618,817 606,832 595,848 583,862 572,877 568,900 565,922 562,944 558,968 565,1004 572,1041 " />
      </g>
      <g
         transform="matrix(0.04235459,0,0,0.04255736,-3.9183138,933.08657)"
         id="g16"
         style="fill:none;stroke:#ff9966">
        <polyline
           id="polyline18"
           style="fill:none"
           points="575,875 570,874 567,873 562,872 558,871 552,866 544,862 537,859 531,855 525,846 520,837 514,830 509,821" />
      </g>
      <path
         sodipodi:nodetypes="cccccccccccc"
         inkscape:connector-curvature="0"
         id="polygon22"
         d="M 8.9092995,984.36357 C 7.9213409,979.85765 7.0604486,975.32499 6.1097465,970.81119 5.9949368,966.44532 5.6975921,962.06717 5.783754,957.7063 6.5539949,953.25686 5.4307494,948.5864 7.3204704,944.05465 7.4552607,941.35426 9.2443675,939.81064 11.465855,938.49189 13.462626,937.64956 15.230083,935.32978 17.527987,936.05314 19.66817,936.50273 22.366612,936.13404 23.096077,938.71624 24.083292,940.17861 25.313726,942.03493 24.258674,943.78398 22.464172,945.12137 20.3979,946.11543 18.592028,947.46719 16.88327,950.08265 14.84587,952.55859 13.907569,955.58923 13.113547,957.72466 12.13813,959.82918 12.027416,962.14259 10.9791,969.54831 9.9331557,976.95439 8.9092995,984.36357 z"
         style="fill:#000000;stroke:none" />
      <path
         sodipodi:nodetypes="sssss"
         inkscape:connector-curvature="0"
         id="path5690"
         d="M 20.533416,948.03391 C 20.387492,948.18615 20.210121,948.24073 20.13725,948.15581 20.06438,948.07091 19.992239,947.80259 20.138163,947.65035 20.284087,947.4981 20.592815,947.51958 20.665686,947.60445 20.738556,947.68935 20.679336,947.88163 20.533416,948.03387 z"
         style="fill:#000000;fill-opacity:1;fill-rule:evenodd;stroke:none" />
      <path
         sodipodi:nodetypes="ccccccccccccccccccccccccccccc"
         inkscape:connector-curvature="0"
         id="polygon26"
         d="M 23.996607,943.6501 C 23.25166,943.95285 22.652236,944.51312 21.942114,944.8887 20.878379,945.56413 19.786662,946.24871 18.766991,946.99056 17.497091,948.88964 16.160333,950.74577 15.031551,952.73314 14.087389,954.12165 13.836947,955.16544 13.292167,956.41957 13.138034,957.167 11.941877,958.95256 12.972249,959.38233 13.335602,959.66104 14.468563,959.65597 14.695363,959.67679 14.587805,959.05749 14.379367,958.4557 14.284464,957.83766 14.207274,956.82984 14.46403,955.83371 14.545945,954.835 14.653143,954.14266 15.550641,953.84409 15.70393,953.25861 16.383767,953.58673 17.018538,954.13054 17.795777,954.15941 18.440245,954.05934 18.461357,953.19952 18.692282,952.92081 L 18.8417,952.95831 C 19.575889,952.97451 19.608999,951.55572 20.485294,951.98245 21.43383,952.36666 21.001254,951.1623 21.082964,950.63125 21.085364,949.90775 21.118304,949.16969 21.232381,948.45432 21.781111,947.9466 22.647645,947.78444 22.950683,947.02806 23.344512,946.43487 23.791483,945.86319 23.809834,945.11387 23.818934,944.6666 24.122933,943.90819 23.996607,943.65007 z M 19.304142,947.02549 C 19.354212,947.03549 19.503385,947.01549 19.551433,947.02849 19.760094,947.04629 19.969961,947.10599 20.149104,947.21616 20.255549,947.29296 20.398625,947.37773 20.485294,947.47889 20.600715,947.6149 20.721576,947.99934 20.675006,948.08935 20.600416,948.23331 20.397523,948.50044 20.126125,948.44276 19.933073,948.45386 19.499072,948.02649 19.376347,947.85905 19.290287,947.75038 19.247995,947.52984 19.233619,947.35981 19.216229,947.21348 19.254059,947.01604 19.304179,947.02589 z"
         style="fill:#ffcc99;stroke:none" />
      <g
         transform="matrix(0.04235459,0,0,0.04255736,5.8087677,936.87916)"
         id="g32"
         style="fill:none;stroke:#000000;stroke-width:4.20908022;stroke-miterlimit:4;stroke-dasharray:none">
        <path
           style="stroke-width:4.20908022;stroke-miterlimit:4;stroke-dasharray:none"
           sodipodi:nodetypes="cccc"
           inkscape:connector-curvature="0"
           id="polyline34"
           d="M 325.28513,224.4383 C 332.16101,225.78446 339.32029,226.23 345.7877,229.1478 349.18563,230.42202 352.58356,231.69625 355.98149,232.97047 362.35275,236.4891 363.68613,240.14286 366.03815,242.9797" />
      </g>
      <g
         transform="matrix(0.045579,0,0,0.04534883,3.8843827,934.46743)"
         id="g52"
         style="fill:#993366;stroke:none">
        <path
           sodipodi:nodetypes="cccccc"
           inkscape:connector-curvature="0"
           id="polygon54"
           d="M 313.05644,395.57219 C 312.13474,395.33686 314.42069,398.60125 315.94675,400.3135 317.13593,402.54724 319.50576,403.5453 321.24609,405.22259 323.33938,407.15959 325.24723,409.28439 327.30537,411.2574 329.0553,411.54223 332.59158,410.01656 332.02952,407.68654 329.26019,402.68994 317.54638,398.35017 313.05644,395.57219 z" />
      </g>
      <g
         transform="matrix(0.04235459,0,0,0.04255736,-3.9786571,934.79071)"
         id="g60"
         style="fill:#ff3366;stroke:none">
        <path
           sodipodi:nodetypes="ccccccc"
           inkscape:connector-curvature="0"
           id="polygon62"
           d="M 533.92021,436.79976 C 536.41865,437.27788 539.58097,431.01025 538.18113,429.43028 535.6759,426.057 531.07723,423.16937 528.21445,420.1261 527.16368,419.07318 522.22656,414.0726 521.55966,412.76801 520.16767,413.06373 522.9455,418.85182 522.96193,419.72113 523.60039,422.9037 523.60429,427.51646 525.12537,430.43098 528.69239,435.88377 530.93064,437.26359 533.92021,436.79976 z" />
      </g>
      <path
         sodipodi:nodetypes="accccccacccccca"
         inkscape:connector-curvature="0"
         id="polygon84"
         d="M 20.92695,972.64863 C 20.886451,975.40766 20.935378,978.3515 21.044656,980.92576 21.404412,984.66209 21.110851,988.54995 21.104733,992.82085 21.573036,998.60142 28.239729,1046.6686 30.440182,1051.6845 25.899138,1052.7883 21.481018,1052.1272 16.853429,1051.5759 -0.39359853,1054.2815 -1.3013821,1053.2737 0.76160568,1043.1059 -7.7681873e-4,1041.5911 5.3489805,1002.4437 4.5865978,1000.929 3.9531214,997.01763 2.9014485,993.22723 3.8271204,989.5351 4.5250113,986.75149 6.0250879,985.29886 8.38463,982.23108 6.3998832,974.79666 8.9203863,972.62732 8.6509706,964.79861 8.7267126,962.73205 8.4458099,960.02585 10.128332,958.80839 10.547538,958.46801 11.478086,958.13201 11.11028,958.28707 13.234366,958.46927 17.83994,960.58722 21.911104,964.29428 23.74267,965.87199 21.908877,968.6344 21.029608,970.29422 20.895192,970.57191 20.93848,971.86317 20.92695,972.64863 z"
         style="fill:#000000;stroke:none" />
      <g
         transform="matrix(0.04235459,0,0,0.04255736,-3.9183138,933.08657)"
         id="g86"
         style="fill:#ffcc99;stroke:none">
        <path
           sodipodi:nodetypes="ccccccccccc"
           inkscape:connector-curvature="0"
           id="polygon88"
           d="M 142,1100 C 114.35958,1096.754 105.62263,1066.7985 107.66358,1043.118 108.67781,1010.9486 131.05991,985.48865 143.55191,957.10828 191.38168,864.24327 241.33919,772.35416 284.83008,677.3475 293.12736,653.31219 304.50182,626.50849 331.17418,618.57342 350.46489,608.89042 369.94629,602.7768 384.49417,623.40644 390.45108,635.01723 398.51158,655.75989 402.9506,679.79559 403.84249,716.67149 394.98601,753.98235 374.52398,784.97867 333.04684,856.95278 290.92236,928.86175 240.54174,995.09526 221.28237,1023.1343 200.90956,1050.957 173.6851,1071.8355 163.1234,1081.2237 152.5617,1090.6118 142,1100 z" />
      </g>
      <g
         transform="matrix(0.04235459,0,0,0.04255736,-3.9183138,933.08657)"
         id="g106"
         style="fill:#ffcc99;stroke:none">
        <polygon
           id="polygon108"
           points="403,1462 389,1433 383,1420 378,1416 368,1407 357,1398 353,1395 331,1338 280,1212 220,1081 170,1012 137,1010 117,1029 107,1052 104,1064 122,1096 122,1096 220,1279 264,1366 274,1392 273,1393 271,1403 271,1432 281,1472 310,1518 350,1541 386,1534 413,1515 424,1505 417,1491 " />
      </g>
      <path
         inkscape:connector-curvature="0"
         id="path5696"
         d="M 19.354238,946.9734 C 19.478251,946.9674 19.598957,947.0002 19.717636,947.0313 19.810796,947.0458 19.906213,947.0554 19.992294,947.0973 20.135015,947.1498 20.258434,947.24018 20.391492,947.31188 20.436042,947.34998 20.495403,947.35158 20.541113,947.38628 20.598453,947.43708 20.634383,947.50748 20.672513,947.57278 20.704123,947.64308 20.746083,947.73708 20.836525,947.73601 20.891265,947.74301 20.946173,947.73401 21.000035,947.72151 20.967945,947.74011 20.871994,947.79241 20.950575,947.74151 20.979605,947.72431 21.099175,947.65501 21.012725,947.70461 20.987875,947.71781 20.90309,947.77151 20.970125,947.72691 21.012675,947.70451 21.058865,947.68891 21.102877,947.66931 21.076087,947.70301 20.982054,947.75131 20.976275,947.75011 20.999275,947.73781 21.090538,947.68261 21.027475,947.72781 20.936095,947.79981 20.815429,947.84228 20.699958,947.81191 20.609718,947.80161 20.581667,947.70302 20.547251,947.63368 20.511601,947.56578 20.471281,947.49616 20.402234,947.45713 20.325394,947.41253 20.243422,947.37773 20.168378,947.32962 20.089728,947.28122 20.012171,947.23132 19.92575,947.19766 19.82857,947.15186 19.723563,947.12486 19.616859,947.11686 19.503684,947.09186 19.391,947.04746 19.273241,947.06016 19.217521,947.04266 19.338971,946.99726 19.354251,946.97356 z"
         style="fill:#000000;fill-opacity:1;fill-rule:evenodd;stroke:none" />
      <path
         inkscape:connector-curvature="0"
         d="M 20.687284,947.57085 C 20.711854,947.57092 20.734884,947.57985 20.757754,947.58745 20.780654,947.59345 20.801754,947.60495 20.824204,947.61255 20.849004,947.61955 20.860294,947.61955 20.883904,947.61055 20.926914,947.57945 20.885704,947.6096 20.777124,947.67085 20.774524,947.67185 20.781924,947.66785 20.784424,947.66585 20.792024,947.65985 20.798974,947.65465 20.805804,947.64815 20.820034,947.63575 20.836394,947.62605 20.851604,947.61495 20.859304,947.60995 20.865964,947.60475 20.872364,947.59855 20.872364,947.59855 21.002605,947.54285 21.002605,947.54285 L 21.002605,947.54285 C 20.997205,947.55085 20.991965,947.55815 20.983275,947.56295 20.967575,947.57315 20.953015,947.58505 20.936775,947.59445 20.912095,947.61575 20.948365,947.58395 20.923395,947.60765 20.921495,947.60965 20.911185,947.61765 20.908735,947.61885 20.781635,947.69505 20.827185,947.67855 20.772114,947.69765 20.750234,947.70265 20.728364,947.69965 20.707324,947.69265 20.685484,947.68365 20.664144,947.67415 20.641644,947.66735 20.619164,947.65935 20.596154,947.65385 20.572184,947.65575 20.572184,947.65575 20.687342,947.57165 20.687342,947.57165 z"
         id="path5698"
         style="fill:#000000;fill-opacity:1;fill-rule:evenodd;stroke:none" />
      <path
         inkscape:connector-curvature="0"
         d="M 20.54941,947.38623 C 20.57001,947.39223 20.59003,947.40043 20.61056,947.40703 20.62616,947.41303 20.64312,947.41603 20.65841,947.42313 20.67479,947.43013 20.68948,947.43953 20.70638,947.44493 20.72374,947.45393 20.74233,947.45813 20.76156,947.46023 20.77968,947.4606 20.79863,947.46423 20.81637,947.45957 20.86032,947.43777 20.91576,947.40487 20.71652,947.51757 20.71402,947.51857 20.72142,947.51457 20.72372,947.51257 20.72872,947.50857 20.73342,947.50457 20.73837,947.50137 20.75399,947.49057 20.76335,947.47467 20.77297,947.45877 20.77297,947.45877 20.90228,947.40087 20.90228,947.40087 L 20.90228,947.40087 C 20.89318,947.41797 20.8837,947.43507 20.86967,947.44877 20.8196,947.48847 20.766106,947.53147 20.7029,947.54437 20.68392,947.54487 20.66485,947.54428 20.64603,947.54137 20.62637,947.53837 20.60769,947.53137 20.58949,947.52357 20.57289,947.51657 20.55743,947.50807 20.54069,947.50197 20.52489,947.49697 20.50939,947.49107 20.4936,947.48597 20.47381,947.47897 20.45404,947.47107 20.43316,947.46747 20.43316,947.46747 20.549419,947.38547 20.549419,947.38547 z"
         id="path5700"
         style="fill:#000000;fill-opacity:1;fill-rule:evenodd;stroke:none" />
      <path
         inkscape:connector-curvature="0"
         d="M 20.314687,947.24085 C 20.332027,947.25185 20.351577,947.25975 20.371147,947.26595 20.387847,947.27395 20.405767,947.27915 20.423417,947.28475 20.440197,947.28875 20.457477,947.29275 20.472987,947.30045 20.489047,947.30845 20.507297,947.30945 20.524827,947.31045 20.534867,947.31245 20.541547,947.30945 20.550287,947.30545 20.553287,947.30445 20.562117,947.30045 20.559387,947.30245 20.396583,947.39755 20.413665,947.38695 20.455177,947.36075 20.465177,947.35475 20.471887,947.34575 20.479087,947.33705 20.479087,947.33705 20.610599,947.28295 20.610599,947.28295 L 20.610599,947.28295 C 20.600439,947.28995 20.595529,947.30075 20.586579,947.30905 20.534069,947.34725 20.477085,947.39865 20.409868,947.39315 20.390998,947.39115 20.372008,947.38815 20.354848,947.37975 20.338998,947.37375 20.322768,947.36935 20.306448,947.36495 20.288878,947.35895 20.271218,947.35365 20.254448,947.34565 20.233758,947.33765 20.213048,947.32955 20.194378,947.31765 20.194378,947.31765 20.314678,947.24115 20.314678,947.24115 z"
         id="path5702"
         style="fill:#000000;fill-opacity:1;fill-rule:evenodd;stroke:none" />
      <path
         sodipodi:nodetypes="sssss"
         inkscape:connector-curvature="0"
         id="path5706"
         d="M 20.527636,947.69647 C 20.527636,947.74767 20.469576,947.83065 20.432056,947.83065 20.394536,947.83065 20.288091,947.81685 20.288091,947.76565 20.288091,947.71445 20.359991,947.6453 20.397501,947.6453 20.435011,947.6453 20.527636,947.64532 20.527636,947.6965 z"
         style="fill:#ffffff;fill-opacity:1;fill-rule:evenodd;stroke:none" />
    </g>
  </g>
</svg>
