<?xml version="1.0" encoding="UTF-8" standalone="no"?>
<!-- Created with Inkscape (http://www.inkscape.org/) -->

<svg
   xmlns:dc="http://purl.org/dc/elements/1.1/"
   xmlns:cc="http://creativecommons.org/ns#"
   xmlns:rdf="http://www.w3.org/1999/02/22-rdf-syntax-ns#"
   xmlns:svg="http://www.w3.org/2000/svg"
   xmlns="http://www.w3.org/2000/svg"
   xmlns:sodipodi="http://sodipodi.sourceforge.net/DTD/sodipodi-0.dtd"
   xmlns:inkscape="http://www.inkscape.org/namespaces/inkscape"
   width="138.19009"
   height="323.78125"
   id="svg2"
   version="1.1"
   inkscape:version="0.48.4 r9939"
   sodipodi:docname="Neues Dokument 1">
  <defs
     id="defs4" />
  <sodipodi:namedview
     id="base"
     pagecolor="#ffffff"
     bordercolor="#666666"
     borderopacity="1.0"
     inkscape:pageopacity="0.0"
     inkscape:pageshadow="2"
     inkscape:zoom="1.0824912"
     inkscape:cx="-44.936071"
     inkscape:cy="198.91907"
     inkscape:document-units="px"
     inkscape:current-layer="layer1"
     showgrid="false"
     fit-margin-top="0"
     fit-margin-left="0"
     fit-margin-right="0"
     fit-margin-bottom="0"
     inkscape:window-width="1354"
     inkscape:window-height="709"
     inkscape:window-x="0"
     inkscape:window-y="0"
     inkscape:window-maximized="1" />
  <metadata
     id="metadata7">
    <rdf:RDF>
      <cc:Work
         rdf:about="">
        <dc:format>image/svg+xml</dc:format>
        <dc:type
           rdf:resource="http://purl.org/dc/dcmitype/StillImage" />
        <dc:title></dc:title>
      </cc:Work>
    </rdf:RDF>
  </metadata>
  <g
     inkscape:label="Ebene 1"
     inkscape:groupmode="layer"
     id="layer1"
     transform="translate(-282.23308,-407.5)">
    <g
       id="g3060">
      <path
         d="M 414.78396,480.99496 C 414.78396,521.5557 387.27975,554.43667 353.35159,554.43667 319.42343,554.43667 291.91922,521.5557 291.91922,480.99496 291.91922,440.43423 319.42343,407.55326 353.35159,407.55326 387.27975,407.55326 414.78396,440.43423 414.78396,480.99496 z"
         sodipodi:ry="73.441704"
         sodipodi:rx="61.432369"
         sodipodi:cy="480.99496"
         sodipodi:cx="353.35159"
         id="path3002"
         style="fill:#666666;fill-opacity:1;fill-rule:evenodd;stroke:#000000;stroke-width:0;stroke-linejoin:round;stroke-miterlimit:4;stroke-opacity:1;stroke-dasharray:none;stroke-dashoffset:0"
         sodipodi:type="arc" />
      <path
         sodipodi:nodetypes="cscsc"
         inkscape:connector-curvature="0"
         id="path3004"
         d="M 309.47134,533.18937 C 309.47134,533.18937 266.97677,560.90322 289.14785,638.502 311.31893,716.10079 329.79483,730.88151 329.79483,730.88151 329.79483,730.88151 248.98773,577.98501 333.49001,549.81768 336.26139,548.89389 309.47134,533.18937 309.47134,533.18937 z"
         style="fill:#916f6f;stroke:#000000;stroke-width:1px;stroke-linecap:butt;stroke-linejoin:miter;stroke-opacity:1" />
      <path
         sodipodi:nodetypes="cscsc"
         inkscape:connector-curvature="0"
         id="path3004-6"
         d="M 393.20554,532.26558 C 393.20554,532.26558 435.70011,559.97943 413.52903,637.57821 391.35795,715.177 372.88205,729.95772 372.88205,729.95772 372.88205,729.95772 453.68915,577.06122 369.18687,548.89389 366.41549,547.9701 393.20554,532.26558 393.20554,532.26558 z"
         style="fill:#916f6f;stroke:#000000;stroke-width:1px;stroke-linecap:butt;stroke-linejoin:miter;stroke-opacity:1" />
      <path
         sodipodi:nodetypes="cscsc"
         inkscape:connector-curvature="0"
         id="path3004-7"
         d="M 328.62064,542.22298 C 328.62064,542.22298 305.81807,560.28132 317.71506,610.84469 329.61205,661.40806 339.52621,671.03918 339.52621,671.03918 339.52621,671.03918 296.16516,571.41181 341.50904,553.05798 342.99616,552.45604 328.62064,542.22298 328.62064,542.22298 z"
         style="fill:#916f6f;stroke:#000000;stroke-width:0.59131062px;stroke-linecap:butt;stroke-linejoin:miter;stroke-opacity:1" />
      <path
         sodipodi:nodetypes="cscsc"
         inkscape:connector-curvature="0"
         id="path3004-7-8"
         d="M 370.6922,542.68487 C 370.6922,542.68487 393.49477,560.74321 381.59778,611.30658 369.70079,661.86996 359.78663,671.50108 359.78663,671.50108 359.78663,671.50108 403.14768,571.8737 357.8038,553.51987 356.31668,552.91793 370.6922,542.68487 370.6922,542.68487 z"
         style="fill:#916f6f;stroke:#000000;stroke-width:0.59131062px;stroke-linecap:butt;stroke-linejoin:miter;stroke-opacity:1" />
    </g>
  </g>
</svg>
