<?xml version="1.0" encoding="UTF-8" standalone="no"?>
<!-- Created with Inkscape (http://www.inkscape.org/) -->

<svg
   xmlns:dc="http://purl.org/dc/elements/1.1/"
   xmlns:cc="http://creativecommons.org/ns#"
   xmlns:rdf="http://www.w3.org/1999/02/22-rdf-syntax-ns#"
   xmlns:svg="http://www.w3.org/2000/svg"
   xmlns="http://www.w3.org/2000/svg"
   xmlns:sodipodi="http://sodipodi.sourceforge.net/DTD/sodipodi-0.dtd"
   xmlns:inkscape="http://www.inkscape.org/namespaces/inkscape"
   id="svg2"
   version="1.1"
   inkscape:version="0.48.4 r9939"
   width="513.07458"
   height="510.56113"
   sodipodi:docname="underWater.png">
  <metadata
     id="metadata8">
    <rdf:RDF>
      <cc:Work
         rdf:about="">
        <dc:format>image/svg+xml</dc:format>
        <dc:type
           rdf:resource="http://purl.org/dc/dcmitype/StillImage" />
        <dc:title></dc:title>
      </cc:Work>
    </rdf:RDF>
  </metadata>
  <defs
     id="defs6" />
  <sodipodi:namedview
     pagecolor="#ffffff"
     bordercolor="#666666"
     borderopacity="1"
     objecttolerance="10"
     gridtolerance="10"
     guidetolerance="10"
     inkscape:pageopacity="0"
     inkscape:pageshadow="2"
     inkscape:window-width="1354"
     inkscape:window-height="709"
     id="namedview4"
     showgrid="false"
     fit-margin-top="0"
     fit-margin-left="0"
     fit-margin-right="0"
     fit-margin-bottom="0"
     inkscape:zoom="0.472"
     inkscape:cx="253.61658"
     inkscape:cy="259.35339"
     inkscape:window-x="0"
     inkscape:window-y="0"
     inkscape:window-maximized="1"
     inkscape:current-layer="svg2" />
  <g
     id="g2987"
     transform="translate(5.7352215,3.3263749)">
    <path
       style="fill:#8af6fb"
       d="M 0,250 C 0,166.66667 0,83.333333 0,0 166.66667,0 333.33333,0 500,0 500,166.66667 500,333.33333 500,500 333.33333,500 166.66667,500 0,500 0,416.66667 0,333.33333 0,250 z"
       id="path3003"
       inkscape:connector-curvature="0" />
    <path
       style="fill:#5aeef8"
       d="M 0,250 C 0,166.66667 0,83.333333 0,0 54.89543,48.36396 129.84168,17.724361 191.903,4.5451821 276.51413,-7.2711127 362.22427,3.9251209 447.16595,2.9622982 509.90921,11.396521 505.19085,89.768932 499.98557,137.00158 499.96741,257.94391 500.02773,379.00664 500,500 333.33333,500 166.66667,500 0,500 0,416.66667 0,333.33333 0,250 z M 239,23.540142 C 229.32319,7.5369416 224.58455,38.07068 239,23.540142 z M 497.94528,7.4340634 C 470.87025,22.51224 471.57375,-23.054792 497.94528,7.4340634 z M 103.41739,0.89208869 C 111.78686,-4.8383083 113.53069,7.499406 103.41739,0.89208869 z"
       id="path3001"
       inkscape:connector-curvature="0" />
    <path
       style="fill:#1dd0e4"
       d="M 0,267.37285 C 0,189.83046 0,112.28808 0,34.745691 47.39369,80.395003 117.74039,53.867969 173.8339,47.209269 185.61035,62.279833 197.71318,121.37897 210.89349,73.458791 243.34748,29.193657 296.80236,73.643308 337.74268,58.186434 382.17875,34.484898 438.94231,31.247975 481.33941,61.332336 524.1171,90.659984 492.47274,143.24682 499.66444,184.65827 500.60449,289.76852 499.64958,394.88671 500,500 333.33333,500 166.66667,500 0,500 0,422.45762 0,344.91523 0,267.37285 z"
       id="path2999"
       inkscape:connector-curvature="0" />
    <path
       style="fill:#0fb1cb"
       d="M 0,305.42857 C 16.297065,250.69419 -31.899346,158.47121 23.663255,129.09645 66.090647,149.5526 120.80336,131.59264 148.51645,178.32051 156.66031,135.30501 196.77512,153.90447 195.26119,188.24252 237.33695,219.92408 210.91324,154.28362 219.6134,134.62687 242.30857,95.306946 290.76647,113.95622 326.5086,116.08189 374.25845,117.41132 423.5749,112.91863 469.86136,127.70614 515.4935,146.99285 494.61746,203.91798 499.92574,241.85898 500.44853,327.90547 499.6505,413.95316 500,500 333.33333,500 166.66667,500 0,500 0,435.14286 0,370.28571 0,305.42857 z M 66,292.54705 C 69.918444,272.83253 50.089769,302.43954 66,292.54705 z M 420.81697,288.73576 C 418.78026,269.33081 413.83606,302.38683 420.81697,288.73576 z M 425.90569,210.4259 C 431.63338,182.82113 405.10476,222.31532 425.90569,210.4259 z"
       id="path2997"
       inkscape:connector-curvature="0" />
    <path
       style="fill:#11a4bb"
       d="M 0,330.56739 C 7.7271266,284.23899 -13.28322,222.17538 7.5876531,185.62735 36.334834,202.96172 103.42294,214.08537 60.9144,258.05016 22.007573,312.19135 112.43864,309.18277 109.90977,257.91835 112.27588,201.05626 185.19355,220.23107 213.7586,245.10025 240.48855,266.71716 275.67392,257.00176 262.81752,219.50416 292.11971,179.3295 359.16552,194.24388 391.30627,222.85502 405.06308,255.78192 397.27653,322.48224 453.20756,309.72052 490.23615,299.44501 410.20612,279.07715 443.36355,247.56343 479.45052,191.29437 509.18033,267.56445 497.06257,304.26168 499.21652,367.90572 505.7567,432.11323 495.35411,495.46074 435.34223,507.33418 373.89352,496.36218 313.18062,500 208.78708,500 104.39354,500 0,500 0,443.52246 0,387.04493 0,330.56739 z M 395,366.5 C 398.82154,348.9822 385.87902,374.75948 395,366.5 z M 263.33322,345.86195 C 300.84555,314.64586 228.42028,298.45022 241.72228,338.69908 246.80193,344.81991 255.64916,347.23617 263.33322,345.86195 z M 203.45972,314.06518 C 193.60218,281.81882 165.97439,331.55259 203.45972,314.06518 z M 344,305.46676 C 381.11142,308.16261 335.17203,279.89485 344,305.46676 z"
       id="path2995"
       inkscape:connector-curvature="0" />
    <path
       style="fill:#1392af"
       d="M 0,431.04889 C 17.466072,383.73587 -32.618486,291.89249 24.279628,274.36047 55.872874,338.87795 112.12603,296.3286 141.96455,258.45336 168.06285,247.19304 236.56484,276.11084 221.4532,297.63702 198.07253,277.8971 115.50373,303.21489 149.99523,324.87339 203.98476,314.45237 242.83819,381.21743 304.04698,359.07521 339.86345,339.55573 403.72658,408.68947 411.41395,341.94049 402.23965,282.96556 509.94621,325.15691 497.00219,359.4836 493.76651,404.32813 528.99152,482.68421 466.32258,498.76487 368.13959,501.35254 269.46359,499.37162 171.05572,500 114.03715,500 57.018573,500 0,500 0,477.0163 0,454.03259 0,431.04889 z M 371.61593,352.96765 C 312.4498,334.07644 417.75168,277.62872 395.77807,341.7012 392.92459,351.19517 380.98592,360.42739 371.61593,352.96765 z M 308.33075,301.51911 C 269.79723,263.98358 364.06881,236.90428 339.43098,288.2662 331.54313,297.1508 319.65952,300.37845 308.33075,301.51911 z M 0,187.83651 C 4.6131032,174.57085 -1.98381,210.88253 0,187.83651 z"
       id="path2993"
       inkscape:connector-curvature="0" />
    <path
       style="fill:#186c91"
       d="M 0,445.04046 C -25.474085,404.00773 41.753822,382.54345 48.769172,429.59896 89.628357,467.37385 133.20926,416.77039 151.33388,381.46635 190.24611,334.17321 239.90998,393.98574 287.41965,372.32313 340.26107,346.34539 384.33309,438.41369 422.93896,376.42453 450.29543,323.28606 500.4646,382.39412 504.29356,419.89508 518.11224,462.64516 483.20478,520.18861 434.06399,502.86326 316.73226,495.93181 199.01475,501.74644 81.521211,500.23753 55.313421,491.68567 -9.4514444,521.20623 0,476.93248 0,466.30181 0,455.67113 0,445.04046 z M 73.893269,404.50309 C 52.695537,371.10867 127.41638,379.97462 80.042483,401.41998 77.992745,402.44768 75.943007,403.47539 73.893269,404.50309 z"
       id="path2991"
       inkscape:connector-curvature="0" />
    <path
       style="fill:#1a5b82"
       d="M 0,479 C 58.750731,439.7089 130.95159,481.6228 194.17419,459.43784 282.76084,449.16949 372.68428,467.95463 460.72142,450.402 514.34038,460.64575 482.18788,526.33706 435.90802,501.77625 290.63743,497.44609 145.2993,501.33232 0,500 0,493 0,486 0,479 z"
       id="path2989"
       inkscape:connector-curvature="0" />
  </g>
</svg>
